<svg width="28" height="28" viewBox="0 0 28 28" fill="none" xmlns="http://www.w3.org/2000/svg">
<path d="M20.9357 17.2397C21.0079 17.3017 21.0928 17.3501 21.1856 17.3823C21.2783 17.4145 21.3772 17.4297 21.4764 17.4271C21.5757 17.4246 21.6734 17.4043 21.764 17.3674C21.8547 17.3305 21.9364 17.2778 22.0046 17.2122C22.0728 17.1466 22.1261 17.0694 22.1615 16.9851C22.1969 16.9008 22.2137 16.811 22.2109 16.7208C22.2081 16.6305 22.1857 16.5417 22.1452 16.4593C22.1046 16.377 22.0466 16.3027 21.9744 16.2407L15.1708 10.4007C15.0305 10.2801 14.8446 10.2129 14.6515 10.2129C14.4583 10.2129 14.2725 10.2801 14.1321 10.4007L7.3278 16.2407C7.25404 16.3023 7.19449 16.3766 7.15259 16.4592C7.11069 16.5419 7.08729 16.6313 7.08373 16.7223C7.08017 16.8132 7.09654 16.9039 7.13188 16.9891C7.16722 17.0743 7.22082 17.1522 7.28958 17.2184C7.35833 17.2846 7.44087 17.3377 7.5324 17.3746C7.62393 17.4115 7.72262 17.4316 7.82275 17.4336C7.92287 17.4356 8.02243 17.4194 8.11564 17.3861C8.20885 17.3529 8.29386 17.3031 8.36572 17.2397L14.6515 11.8449L20.9357 17.2397Z" fill="#130E67"/>
</svg>
