<svg width="24" height="24" viewBox="0 0 24 24" fill="currentColor" xmlns="http://www.w3.org/2000/svg">
<path d="M16.5001 21.7504C16.5001 21.9494 16.4211 22.1401 16.2805 22.2808C16.1398 22.4214 15.949 22.5004 15.7501 22.5004H8.25012C8.05121 22.5004 7.86045 22.4214 7.71979 22.2808C7.57914 22.1401 7.50012 21.9494 7.50012 21.7504C7.50012 21.5515 7.57914 21.3608 7.71979 21.2201C7.86045 21.0795 8.05121 21.0004 8.25012 21.0004H15.7501C15.949 21.0004 16.1398 21.0795 16.2805 21.2201C16.4211 21.3608 16.5001 21.5515 16.5001 21.7504ZM20.2501 9.75044C20.2534 11.0007 19.9709 12.2352 19.4243 13.3597C18.8778 14.4842 18.0815 15.469 17.0964 16.2389C16.9122 16.3801 16.7627 16.5615 16.6593 16.7693C16.556 16.9772 16.5015 17.2059 16.5001 17.4379V18.0004C16.5001 18.3983 16.3421 18.7798 16.0608 19.0611C15.7795 19.3424 15.3979 19.5004 15.0001 19.5004H9.00012C8.6023 19.5004 8.22077 19.3424 7.93946 19.0611C7.65816 18.7798 7.50012 18.3983 7.50012 18.0004V17.4379C7.49997 17.2086 7.44724 16.9824 7.34599 16.7766C7.24474 16.5709 7.09766 16.3911 6.91606 16.2511C5.93337 15.4857 5.13767 14.5069 4.58916 13.3886C4.04066 12.2703 3.75374 11.0419 3.75012 9.79638C3.72575 5.32825 7.337 1.60732 11.8014 1.50044C12.9014 1.47393 13.9956 1.66774 15.0196 2.07046C16.0436 2.47317 16.9767 3.07666 17.7639 3.8454C18.5512 4.61414 19.1767 5.5326 19.6037 6.54671C20.0306 7.56083 20.2504 8.65011 20.2501 9.75044ZM18.7501 9.75044C18.7504 8.85012 18.5705 7.95885 18.2212 7.12909C17.8718 6.29932 17.3599 5.54783 16.7158 4.91886C16.0716 4.28988 15.3081 3.79613 14.4702 3.46667C13.6324 3.1372 12.7371 2.97868 11.837 3.00044C8.18075 3.08669 5.23044 6.13075 5.25012 9.787C5.25355 10.8057 5.48862 11.8102 5.93755 12.7247C6.38648 13.6391 7.0375 14.4394 7.84137 15.0651C8.20273 15.346 8.49501 15.7059 8.69586 16.1172C8.8967 16.5285 9.00078 16.9802 9.00012 17.4379V18.0004H15.0001V17.4379C15.0012 16.9789 15.107 16.5262 15.3096 16.1144C15.5122 15.7025 15.8062 15.3423 16.1692 15.0614C16.9755 14.4312 17.6272 13.6252 18.0745 12.7047C18.5218 11.7843 18.7529 10.7738 18.7501 9.75044ZM17.2398 8.87482C17.0453 7.78853 16.5227 6.78791 15.7423 6.00766C14.9619 5.22741 13.9611 4.705 12.8748 4.51075C12.7777 4.49438 12.6783 4.4973 12.5823 4.51934C12.4862 4.54139 12.3955 4.58213 12.3153 4.63924C12.235 4.69634 12.1668 4.7687 12.1145 4.85218C12.0622 4.93566 12.0268 5.02862 12.0104 5.12575C11.9941 5.22289 11.997 5.3223 12.019 5.41831C12.0411 5.51432 12.0818 5.60505 12.1389 5.68531C12.196 5.76558 12.2684 5.83381 12.3519 5.88611C12.4353 5.93841 12.5283 5.97376 12.6254 5.99013C14.1789 6.25169 15.497 7.56982 15.7604 9.12607C15.7901 9.30074 15.8807 9.45927 16.0161 9.57356C16.1515 9.68785 16.3229 9.75051 16.5001 9.75044C16.5425 9.75019 16.5848 9.74674 16.6267 9.74013C16.8227 9.70666 16.9974 9.5967 17.1124 9.43443C17.2274 9.27216 17.2732 9.07087 17.2398 8.87482Z" fill="currentColor"/>
</svg>
